<?xml version="1.0" encoding="UTF-8"?>
<svg width="326px" height="100px" viewBox="0 0 326 100" version="1.1" xmlns="http://www.w3.org/2000/svg" xmlns:xlink="http://www.w3.org/1999/xlink">
    <!-- Generator: Sketch 51.2 (57519) - http://www.bohemiancoding.com/sketch -->
    <title>Fill 1</title>
    <desc>Created with Sketch.</desc>
    <defs></defs>
    <g id="Page-1" stroke="none" stroke-width="1" fill="none" fill-rule="evenodd">
        <g id="Facebook-/-Meta-Image" transform="translate(-64.000000, -68.000000)" fill="#000000">
            <path d="M85.6602,165.7381 C99.0302,165.7381 109.3932,161.3261 116.7462,152.5011 C124.1002,143.6771 127.7772,132.1341 127.7772,117.8721 C127.7772,103.6111 124.1002,92.0461 116.7462,83.1751 C109.3932,74.3071 99.0302,69.8721 85.6602,69.8721 L64.0002,69.8721 L64.0002,165.7381 L85.6602,165.7381 Z M75.4982,155.5761 L75.4982,80.0331 L84.9912,80.0331 C95.3312,80.0331 103.0852,83.2651 108.2562,89.7271 C113.4252,96.1911 116.0112,105.5711 116.0112,117.8721 C116.0112,130.0851 113.4252,139.4211 108.2562,145.8831 C103.0852,152.3471 95.3312,155.5761 84.9912,155.5761 L75.4982,155.5761 Z M161.4172,165.7381 L161.4172,121.8831 L202.1972,121.8831 L202.1972,165.7381 L213.6962,165.7381 L213.6962,69.8721 L202.1972,69.8721 L202.1972,111.8551 L161.4172,111.8551 L161.4172,69.8721 L149.9192,69.8721 L149.9192,165.7381 L161.4172,165.7381 Z M231.5582,127.3641 L303.6252,127.3641 L303.6252,118.9411 L231.5582,118.9411 L231.5582,127.3641 Z M371.0932,151.9001 C367.3492,155.6891 362.3562,157.5821 356.1182,157.5821 C338.0222,157.5821 328.9762,144.3451 328.9762,117.8721 C328.9762,106.1961 331.3372,96.6591 336.0622,89.2591 C340.7862,81.8611 347.4712,78.1611 356.1182,78.1611 C361.9112,78.1611 366.6142,79.7221 370.2242,82.8411 C373.8342,85.9621 376.7082,90.7761 378.8482,97.2811 L388.6082,92.6021 C383.2602,76.2021 372.5642,68.0001 356.5192,68.0001 C344.6632,68.0001 335.1472,72.6791 327.9732,82.0391 C320.7972,91.3981 317.2102,103.3441 317.2102,117.8721 C317.2102,132.7591 320.5072,144.7691 327.1042,153.9051 C333.6992,163.0431 343.2822,167.6101 355.8512,167.6101 C372.2502,167.6101 383.3942,158.5181 389.2772,140.3341 L380.0512,136.1891 C377.8222,142.8741 374.8372,148.1121 371.0932,151.9001 Z" id="Fill-1"></path>
        </g>
    </g>
</svg>